<?xml version="1.0" encoding="UTF-8"?>
<svg version="1.1" xmlns="http://www.w3.org/2000/svg" width="48" height="48">
<path d="M0 0 C0.66 -0.0103125 1.32 -0.020625 2 -0.03125 C4.95237916 0.75297571 6.09774105 2.1322999 8 4.5 C8.48583984 7.49267578 8.48583984 7.49267578 8.4609375 10.9453125 C8.45707031 12.18667969 8.45320313 13.42804687 8.44921875 14.70703125 C8.42472656 15.99996094 8.40023438 17.29289062 8.375 18.625 C8.37371094 19.92566406 8.37242188 21.22632813 8.37109375 22.56640625 C8.28069196 32.21930804 8.28069196 32.21930804 6 34.5 C3 34.75 3 34.75 0 34.5 C-2 32.5 -2 32.5 -2.22705078 30.25341797 C-2.21134033 28.88660889 -2.21134033 28.88660889 -2.1953125 27.4921875 C-2.18564453 26.01298828 -2.18564453 26.01298828 -2.17578125 24.50390625 C-2.15902344 23.47136719 -2.14226563 22.43882813 -2.125 21.375 C-2.11597656 20.33472656 -2.10695313 19.29445313 -2.09765625 18.22265625 C-2.07403747 15.64820908 -2.04110149 13.07421788 -2 10.5 C-0.68 10.5 0.64 10.5 2 10.5 C2 16.77 2 23.04 2 29.5 C2.66 29.5 3.32 29.5 4 29.5 C3.86149295 26.04133208 3.71295273 22.58316725 3.5625 19.125 C3.52318359 18.14015625 3.48386719 17.1553125 3.44335938 16.140625 C3.40146484 15.19960938 3.35957031 14.25859375 3.31640625 13.2890625 C3.27974854 12.41975098 3.24309082 11.55043945 3.20532227 10.65478516 C3.12598456 8.4516738 3.12598456 8.4516738 2 6.5 C0.68 6.5 -0.64 6.5 -2 6.5 C-4.09955726 10.69911451 -3.22936921 16.19893904 -3.25 20.8125 C-3.270625 21.95396484 -3.29125 23.09542969 -3.3125 24.27148438 C-3.31765625 25.37427734 -3.3228125 26.47707031 -3.328125 27.61328125 C-3.3374707 28.62173096 -3.34681641 29.63018066 -3.35644531 30.66918945 C-2.93885147 33.98562821 -2.02849219 35.85802855 0 38.5 C3 39.33333333 3 39.33333333 6 38.5 C8.64291142 34.99729466 9.39043547 32.32241002 9.51171875 27.98046875 C9.54716797 26.95888672 9.58261719 25.93730469 9.61914062 24.88476562 C9.64169922 23.82966797 9.66425781 22.77457031 9.6875 21.6875 C9.72166016 20.61306641 9.75582031 19.53863281 9.79101562 18.43164062 C9.87326643 15.78786467 9.94249209 13.14441079 10 10.5 C11.32 10.5 12.64 10.5 14 10.5 C14.11625936 15.06228541 14.18727408 19.62418928 14.25 24.1875 C14.30027344 26.12786133 14.30027344 26.12786133 14.3515625 28.10742188 C14.36445312 29.35458984 14.37734375 30.60175781 14.390625 31.88671875 C14.41157227 33.03358154 14.43251953 34.18044434 14.45410156 35.36206055 C13.90384899 39.16442415 12.65728809 40.78125209 10 43.5 C6.30274625 45.34862688 2.03538558 44.97587094 -2 44.5 C-4.93423195 42.70353146 -6.47205355 41.5558929 -8 38.5 C-8.13507003 35.9934729 -8.21257842 33.51596679 -8.23828125 31.0078125 C-8.246353 30.26546356 -8.25442474 29.52311462 -8.26274109 28.75827026 C-8.27657717 27.18636407 -8.28730146 25.61442788 -8.29516602 24.04248047 C-8.31238512 21.6410217 -8.3562728 19.24093782 -8.40039062 16.83984375 C-8.41051729 15.31251012 -8.41903348 13.78516479 -8.42578125 12.2578125 C-8.44328934 11.54102325 -8.46079742 10.82423401 -8.47883606 10.08572388 C-8.46378446 6.61836498 -8.25224222 4.82520431 -6.09838867 2.04833984 C-3.82472358 0.37066864 -2.78989086 -0.04359204 0 0 Z " fill="#000000" transform="translate(22,1.5)"/>
</svg>
